<svg width="46" height="196" viewBox="0 0 46 196" fill="none" xmlns="http://www.w3.org/2000/svg">
<path d="M45.5619 180.108C45.5619 182.913 44.8957 185.49 43.5634 187.839C42.2311 190.153 40.4079 191.994 38.0938 193.361C35.7447 194.694 33.1327 195.36 30.2577 195.36C27.4879 195.36 24.9459 194.729 22.6319 193.467C20.2828 192.204 18.4246 190.486 17.0572 188.313C15.6898 186.139 15.0061 183.755 15.0061 181.16C15.0061 177.584 16.356 174.849 19.0557 172.956H16.4787C14.5854 172.956 13.1654 173.131 12.2188 173.482C11.237 173.832 10.606 174.253 10.3255 174.744C10.0099 175.235 9.78201 175.866 9.64177 176.637C9.53659 177.198 9.41387 177.636 9.27363 177.952C9.09832 178.233 8.8003 178.443 8.37957 178.583C7.81859 178.723 7.46798 178.793 7.32774 178.793C6.76676 178.793 6.36356 178.566 6.11813 178.11C5.83764 177.619 5.48703 176.672 5.0663 175.27C4.96111 174.954 4.80334 174.446 4.59297 173.745C4.38261 173.008 4.15471 172.342 3.90928 171.746C3.66385 171.045 3.15547 170.011 2.38412 168.643C1.92833 167.802 1.59525 167.171 1.38488 166.75C1.17452 166.294 1.06933 165.856 1.06933 165.435C1.06933 164.909 1.26217 164.436 1.64784 164.015C1.99845 163.63 2.52437 163.437 3.22559 163.437C3.71645 163.437 4.75075 163.595 6.3285 163.91C8.53734 164.331 10.7111 164.664 12.8499 164.909C14.9535 165.155 17.548 165.277 20.6334 165.277H27.1548C31.6075 165.277 35.0085 164.524 37.3576 163.016L39.4086 161.596C40.0397 161.14 40.5481 160.807 40.9338 160.597C41.3195 160.386 41.6876 160.281 42.0382 160.281C42.5992 160.281 43.1952 160.597 43.8263 161.228C44.5626 161.964 44.9308 162.753 44.9308 163.595C44.9308 164.331 44.6678 165.242 44.1419 166.329C43.5809 167.381 42.6693 168.819 41.4071 170.642C44.1769 173.061 45.5619 176.217 45.5619 180.108ZM29.4162 185.525C31.3095 185.385 33.0801 184.964 34.728 184.263C36.3408 183.562 37.6556 182.615 38.6724 181.423C39.6541 180.231 40.1449 178.899 40.1449 177.426C40.1449 175.848 39.4612 174.639 38.0938 173.797C36.7265 172.956 34.8682 172.535 32.5191 172.535C30.5908 172.535 28.6799 172.851 26.7866 173.482C24.8583 174.113 23.263 175.059 22.0008 176.322C20.7386 177.584 20.1075 179.109 20.1075 180.897C20.1075 184.018 22.667 185.578 27.7859 185.578C28.4871 185.578 29.0306 185.56 29.4162 185.525Z" fill="black"/>
<path d="M45.1411 129.927C45.1411 131.715 44.3873 133.398 42.8797 134.976C41.3721 136.553 39.2158 137.728 36.4109 138.499C38.199 139.656 39.7768 141.076 41.1442 142.759C42.5115 144.407 43.5809 146.108 44.3522 147.861C45.0885 149.614 45.4567 151.209 45.4567 152.646C45.4567 153.909 45.1762 154.89 44.6152 155.592C43.5634 156.994 41.9506 157.695 39.7768 157.695C37.8835 157.695 35.8149 157.169 33.571 156.117C31.292 155.066 29.1007 153.558 26.997 151.595C24.8583 149.596 23.0702 147.3 21.6327 144.705C21.0016 146.213 20.686 148.176 20.686 150.595L20.7386 152.383C20.7737 152.734 20.7912 153.225 20.7912 153.856C20.7912 154.697 20.5808 155.364 20.1601 155.855C19.7043 156.31 19.1433 156.538 18.4772 156.538C18.0214 156.538 17.4779 156.065 16.8468 155.118C16.2157 154.172 15.6723 152.944 15.2165 151.437C14.7607 149.894 14.5328 148.299 14.5328 146.651C14.5328 144.688 14.7782 142.987 15.2691 141.55C15.7249 140.077 16.4611 138.675 17.4779 137.342C16.8819 136.185 16.4086 135.063 16.058 133.976C15.7073 132.854 15.532 131.89 15.532 131.084C15.532 130.313 15.7073 129.752 16.058 129.401C16.4787 128.98 16.9169 128.77 17.3727 128.77C17.7584 128.77 18.1616 128.893 18.5823 129.138C19.0031 129.383 19.529 129.752 20.1601 130.242C20.4055 130.418 20.7386 130.646 21.1593 130.926C21.545 131.207 21.8956 131.452 22.2112 131.662C23.4383 132.434 24.6479 132.819 25.84 132.819C26.6113 132.819 27.4703 132.679 28.417 132.399C29.3286 132.118 30.4856 131.68 31.888 131.084C33.0801 130.593 34.1319 130.05 35.0435 129.454C35.9551 128.857 36.9544 128.156 38.0413 127.35C38.9528 126.719 39.6365 126.28 40.0923 126.035C40.5131 125.755 40.9163 125.614 41.3019 125.614C42.2135 125.614 43.09 126.07 43.9315 126.982C44.7379 127.858 45.1411 128.84 45.1411 129.927ZM36.2005 147.545C36.446 147.194 36.5687 146.774 36.5687 146.283C36.5687 145.617 36.3057 144.898 35.7798 144.127C35.2539 143.355 34.465 142.584 33.4132 141.813C31.9056 140.726 30.2051 140.182 28.3118 140.182C26.9795 140.182 25.8049 140.463 24.7882 141.024C25.9101 142.672 27.4703 144.302 29.4688 145.915C31.4673 147.528 33.1502 148.334 34.5176 148.334C35.2539 148.334 35.8149 148.071 36.2005 147.545Z" fill="black"/>
<path d="M45.5619 107.211C45.5619 107.913 45.3866 108.474 45.0359 108.894C44.6853 109.315 43.9666 109.823 42.8797 110.419L32.0984 116.362C31.1167 116.923 30.3804 117.326 29.8895 117.572C27.295 119.009 25.3141 120.131 23.9467 120.938C22.5442 121.744 21.4924 122.463 20.7912 123.094C20.2302 123.585 19.6517 124.198 19.0557 124.935C18.7051 125.391 18.4246 125.706 18.2142 125.881C18.0038 126.057 17.7234 126.144 17.3727 126.144C16.8118 126.144 16.3735 125.934 16.058 125.513C15.7073 125.093 15.532 124.532 15.532 123.83L15.6372 121.621C15.7775 120.009 15.8476 118.711 15.8476 117.73C15.8476 116.923 15.8301 116.187 15.795 115.521C15.7599 114.855 15.7249 114.294 15.6898 113.838C15.5846 112.716 15.532 111.787 15.532 111.051C15.532 110.349 15.7073 109.788 16.058 109.368C16.3735 108.912 16.8118 108.684 17.3727 108.684C17.6532 108.684 17.8987 108.772 18.109 108.947C18.2843 109.122 18.5122 109.403 18.7927 109.788C18.8278 109.858 19.0031 110.086 19.3186 110.472C19.6342 110.858 20.0199 111.138 20.4756 111.314C20.7211 111.419 21.0016 111.471 21.3171 111.471C22.1235 111.471 23.1929 111.156 24.5252 110.525C25.8575 109.858 27.8034 108.772 30.3629 107.264L33.7813 105.265L30.8888 103.74C28.119 102.303 26.0854 101.304 24.7882 100.743C23.4909 100.182 22.4391 99.9011 21.6327 99.9011C21.1769 99.9011 20.8087 99.9712 20.5282 100.111C20.1426 100.287 19.8445 100.497 19.6342 100.743C19.3888 100.988 19.0907 101.339 18.7401 101.794C18.4596 102.18 18.2317 102.478 18.0564 102.688C17.8461 102.864 17.6182 102.951 17.3727 102.951C16.8118 102.951 16.3735 102.759 16.058 102.373C15.7073 101.952 15.532 101.391 15.532 100.69C15.532 100.059 15.5846 99.2525 15.6898 98.2708C15.7249 97.8851 15.7599 97.4293 15.795 96.9034C15.8301 96.3424 15.8476 95.7464 15.8476 95.1153C15.8476 94.7296 15.8301 94.3264 15.795 93.9057C15.7249 93.4849 15.6898 93.1694 15.6898 92.959C15.5846 92.3279 15.532 91.6618 15.532 90.9605C15.532 90.2593 15.7073 89.6983 16.058 89.2776C16.3735 88.8218 16.8118 88.5939 17.3727 88.5939C17.6883 88.5939 17.9512 88.6816 18.1616 88.8569C18.372 89.0322 18.6349 89.3127 18.9505 89.6983C19.5465 90.4346 20.1426 91.0482 20.7386 91.5391C22.8773 93.2921 26.6639 95.6587 32.0984 98.6389L42.6167 104.371C43.7737 105.003 44.5451 105.511 44.9308 105.897C45.3515 106.247 45.5619 106.685 45.5619 107.211Z" fill="black"/>
<path d="M45.1937 84.8443C45.1937 85.791 44.9658 86.5623 44.51 87.1583C44.0192 87.7544 43.4231 88.0524 42.7219 88.0524C42.0908 88.0524 41.6 87.8946 41.2493 87.5791C40.8987 87.2635 40.5306 86.7551 40.1449 86.0539C40.0748 85.9137 39.8644 85.5631 39.5138 85.0021C39.1281 84.4411 38.6198 83.9327 37.9887 83.4769C37.1472 82.8458 36.2005 82.4251 35.1487 82.2147C34.0969 81.9693 32.6944 81.8466 30.9414 81.8466C29.6441 81.8466 28.6274 81.9868 27.8911 82.2673C27.1548 82.5478 26.6113 82.8809 26.2607 83.2666C25.9101 83.6522 25.577 84.1781 25.2615 84.8443C24.981 85.3702 24.7356 85.791 24.5252 86.1065C24.3148 86.387 24.0168 86.65 23.6311 86.8954C23.2455 87.1058 22.8949 87.2109 22.5793 87.2109C21.808 87.2109 21.1067 86.7902 20.4756 85.9487C20.1952 85.5981 19.7043 84.7041 19.0031 83.2666C18.407 81.9693 17.8461 80.8649 17.3201 79.9533C16.0229 77.7795 15.3743 76.2193 15.3743 75.2726C15.3743 74.6766 15.6197 74.0981 16.1105 73.5371C16.6715 72.9411 17.513 72.6431 18.6349 72.6431C19.5115 72.6431 20.651 72.8184 22.0534 73.169C23.561 73.5546 24.7706 73.8176 25.6822 73.9578C26.5587 74.0981 27.8735 74.1682 29.6266 74.1682C32.0809 74.1682 33.869 74.063 34.9909 73.8527C36.1129 73.6423 37.1121 73.204 37.9887 72.5379C38.3042 72.2924 38.8301 71.7665 39.5664 70.9601C40.1274 70.329 40.6007 69.8732 40.9864 69.5927C41.3721 69.3122 41.8278 69.172 42.3538 69.172C43.2303 69.172 43.9315 69.47 44.4574 70.0661C44.9483 70.6621 45.1937 71.3808 45.1937 72.2223C45.1937 72.7132 45.1762 73.1514 45.1411 73.5371C45.1061 73.9228 45.071 74.2734 45.0359 74.5889C44.8606 75.746 44.773 76.8854 44.773 78.0074C44.773 78.6736 44.8431 79.7079 44.9833 81.1103C45.1236 82.5829 45.1937 83.8275 45.1937 84.8443ZM6.01295 83.5821C4.47026 83.5821 3.15547 83.0387 2.06857 81.9518C0.981679 80.8298 0.438232 79.4975 0.438232 77.9548C0.438232 76.3771 0.981679 75.0447 2.06857 73.9578C3.15547 72.8359 4.47026 72.2749 6.01295 72.2749C7.55563 72.2749 8.88796 72.8359 10.0099 73.9578C11.0968 75.0447 11.6403 76.3771 11.6403 77.9548C11.6403 79.4975 11.0968 80.8298 10.0099 81.9518C8.88796 83.0387 7.55563 83.5821 6.01295 83.5821Z" fill="black"/>
<path d="M45.5619 50.9917C45.5619 53.7966 44.8957 56.3736 43.5634 58.7227C42.2311 61.0367 40.4079 62.8774 38.0938 64.2448C35.7447 65.5771 33.1327 66.2433 30.2577 66.2433C27.4879 66.2433 24.9459 65.6122 22.6319 64.35C20.2828 63.0878 18.4246 61.3698 17.0572 59.196C15.6898 57.0222 15.0061 54.6381 15.0061 52.0436C15.0061 48.4673 16.356 45.7326 19.0557 43.8393H16.4787C14.5854 43.8393 13.1654 44.0146 12.2188 44.3652C11.237 44.7158 10.606 45.1365 10.3255 45.6274C10.0099 46.1182 9.78201 46.7493 9.64177 47.5207C9.53659 48.0817 9.41387 48.5199 9.27363 48.8355C9.09832 49.116 8.8003 49.3263 8.37957 49.4666C7.81859 49.6068 7.46798 49.6769 7.32774 49.6769C6.76676 49.6769 6.36356 49.449 6.11813 48.9932C5.83764 48.5024 5.48703 47.5557 5.0663 46.1533C4.96111 45.8377 4.80334 45.3294 4.59297 44.6281C4.38261 43.8919 4.15471 43.2257 3.90928 42.6297C3.66385 41.9284 3.15547 40.8941 2.38412 39.5267C1.92833 38.6853 1.59525 38.0542 1.38488 37.6335C1.17452 37.1777 1.06933 36.7394 1.06933 36.3187C1.06933 35.7927 1.26217 35.3194 1.64784 34.8987C1.99845 34.513 2.52437 34.3202 3.22559 34.3202C3.71645 34.3202 4.75075 34.478 6.3285 34.7935C8.53734 35.2142 10.7111 35.5473 12.8499 35.7927C14.9535 36.0382 17.548 36.1609 20.6334 36.1609H27.1548C31.6075 36.1609 35.0085 35.4071 37.3576 33.8994L39.4086 32.4795C40.0397 32.0237 40.5481 31.6906 40.9338 31.4802C41.3195 31.2699 41.6876 31.1647 42.0382 31.1647C42.5992 31.1647 43.1952 31.4802 43.8263 32.1113C44.5626 32.8476 44.9308 33.6365 44.9308 34.478C44.9308 35.2142 44.6678 36.1258 44.1419 37.2127C43.5809 38.2646 42.6693 39.7021 41.4071 41.5252C44.1769 43.9444 45.5619 47.0999 45.5619 50.9917ZM29.4162 56.4087C31.3095 56.2684 33.0801 55.8477 34.728 55.1465C36.3408 54.4452 37.6556 53.4986 38.6724 52.3065C39.6541 51.1144 40.1449 49.7821 40.1449 48.3096C40.1449 46.7318 39.4612 45.5222 38.0938 44.6807C36.7265 43.8393 34.8682 43.4185 32.5191 43.4185C30.5908 43.4185 28.6799 43.7341 26.7866 44.3652C24.8583 44.9963 23.263 45.9429 22.0008 47.2051C20.7386 48.4673 20.1075 49.9925 20.1075 51.7806C20.1075 54.901 22.667 56.4613 27.7859 56.4613C28.4871 56.4613 29.0306 56.4437 29.4162 56.4087Z" fill="black"/>
<path d="M45.5619 14.6295C45.5619 17.4344 44.8957 20.0114 43.5634 22.3605C42.2311 24.6745 40.4079 26.5152 38.0938 27.8826C35.7447 29.215 33.1327 29.8811 30.2577 29.8811C27.4879 29.8811 24.9459 29.1974 22.6319 27.83C20.2828 26.4627 18.4246 24.622 17.0572 22.3079C15.6898 19.9588 15.0061 17.3994 15.0061 14.6295C15.0061 11.0182 15.9177 8.21336 17.7409 6.21488C19.5641 4.2164 22.3164 3.21715 25.9978 3.21715C27.0496 3.21715 27.8209 3.33987 28.3118 3.5853C28.7676 3.83073 29.0831 4.23392 29.2584 4.7949C29.4338 5.35588 29.5565 6.24994 29.6266 7.47708L30.5732 20.9931C31.5549 20.6776 32.3438 20.3445 32.9399 19.9939C34.7981 19.0122 36.1655 17.6799 37.042 15.9969C37.8835 14.2789 38.3042 12.4558 38.3042 10.5274C38.3042 9.12495 38.1114 7.79263 37.7257 6.53043C37.305 5.26823 36.7615 4.23392 36.0954 3.42751C35.4993 2.79641 35.2013 2.2705 35.2013 1.84977C35.2013 1.67446 35.289 1.4641 35.4643 1.21867C35.7448 0.832999 36.0603 0.640167 36.4109 0.640167C36.7615 0.640167 37.2699 0.832999 37.9361 1.21867C40.4254 2.58605 42.3187 4.44429 43.616 6.79338C44.9132 9.14248 45.5619 11.7545 45.5619 14.6295ZM24.7356 11.4214C23.0176 11.4214 21.6151 11.8772 20.5282 12.7888C19.4413 13.6654 18.8979 14.7698 18.8979 16.1021C18.8979 17.0488 19.1959 17.9954 19.792 18.942C20.3529 19.8536 21.2119 20.5549 22.3689 21.0457C23.526 21.5366 24.8408 21.7645 26.3133 21.7294L24.7356 11.4214Z" fill="black"/>
</svg>
