<svg width="157" height="157" viewBox="0 0 157 157" fill="none" xmlns="http://www.w3.org/2000/svg">
<path d="M97.1612 51.0703C98.3802 49.8513 100.033 49.1665 101.757 49.1665C103.481 49.1665 105.135 49.8513 106.354 51.0703C107.573 52.2893 108.257 53.9426 108.257 55.6665C108.257 57.3904 107.573 59.0437 106.354 60.2627L87.9688 78.6475L106.354 97.0322C107.573 98.2512 108.257 99.9045 108.257 101.628C108.257 103.352 107.573 105.006 106.354 106.225C105.135 107.444 103.481 108.128 101.757 108.128C100.033 108.128 98.3802 107.444 97.1612 106.225L78.7764 87.8398L60.3916 106.225C59.1726 107.444 57.5193 108.128 55.7954 108.128C54.0715 108.128 52.4182 107.444 51.1992 106.225C49.9802 105.006 49.2954 103.352 49.2954 101.628C49.2954 99.9045 49.9802 98.2512 51.1992 97.0322L69.584 78.6475L51.1992 60.2627C49.9802 59.0437 49.2954 57.3904 49.2954 55.6665C49.2954 53.9426 49.9802 52.2893 51.1992 51.0703C52.4182 49.8513 54.0715 49.1665 55.7954 49.1665C57.5193 49.1665 59.1726 49.8513 60.3916 51.0703L78.7764 69.4551L97.1612 51.0703Z" fill="white"/>
</svg>
