<svg width="158" height="158" viewBox="0 0 158 158" fill="none" xmlns="http://www.w3.org/2000/svg">
<path d="M97.3848 51.4228C98.6038 50.2038 100.257 49.519 101.981 49.519C103.705 49.519 105.358 50.2038 106.577 51.4228C107.796 52.6418 108.481 54.2951 108.481 56.019C108.481 57.7429 107.796 59.3962 106.577 60.6152L88.1924 79L106.577 97.3848C107.796 98.6038 108.481 100.257 108.481 101.981C108.481 103.705 107.796 105.358 106.577 106.577C105.358 107.796 103.705 108.481 101.981 108.481C100.257 108.481 98.6038 107.796 97.3848 106.577L79 88.1924L60.6153 106.577C59.3963 107.796 57.743 108.481 56.0191 108.481C54.2952 108.481 52.6419 107.796 51.4229 106.577C50.2039 105.358 49.5191 103.705 49.5191 101.981C49.5191 100.257 50.2039 98.6038 51.4229 97.3848L69.8076 79L51.4229 60.6152C50.2039 59.3962 49.5191 57.7429 49.5191 56.019C49.5191 54.2951 50.2039 52.6418 51.4229 51.4228C52.6419 50.2038 54.2952 49.519 56.0191 49.519C57.743 49.519 59.3963 50.2038 60.6153 51.4228L79 69.8076L97.3848 51.4228Z" fill="black"/>
</svg>
