<svg width="158" height="158" viewBox="0 0 158 158" fill="none" xmlns="http://www.w3.org/2000/svg">
<path d="M42.4444 32H63.3333C66.1034 32 68.76 33.1004 70.7187 35.0591C72.6774 37.0178 73.7778 39.6744 73.7778 42.4444V63.3333C73.7778 66.1034 72.6774 68.76 70.7187 70.7187C68.76 72.6774 66.1034 73.7778 63.3333 73.7778H42.4444C39.6744 73.7778 37.0178 72.6774 35.0591 70.7187C33.1004 68.76 32 66.1034 32 63.3333V42.4444C32 36.7 36.7 32 42.4444 32ZM42.4444 42.4444V63.3333H63.3333V42.4444H42.4444ZM94.6667 32H115.556C118.326 32 120.982 33.1004 122.941 35.0591C124.9 37.0178 126 39.6744 126 42.4444V63.3333C126 66.1034 124.9 68.76 122.941 70.7187C120.982 72.6774 118.326 73.7778 115.556 73.7778H94.6667C91.8966 73.7778 89.24 72.6774 87.2813 70.7187C85.3226 68.76 84.2222 66.1034 84.2222 63.3333V42.4444C84.2222 36.7 88.9222 32 94.6667 32ZM94.6667 42.4444V63.3333H115.556V42.4444H94.6667ZM42.4444 84.2222H63.3333C66.1034 84.2222 68.76 85.3226 70.7187 87.2813C72.6774 89.24 73.7778 91.8966 73.7778 94.6667V115.556C73.7778 118.326 72.6774 120.982 70.7187 122.941C68.76 124.9 66.1034 126 63.3333 126H42.4444C39.6744 126 37.0178 124.9 35.0591 122.941C33.1004 120.982 32 118.326 32 115.556V94.6667C32 88.9222 36.7 84.2222 42.4444 84.2222ZM42.4444 94.6667V115.556H63.3333V94.6667H42.4444ZM94.6667 84.2222H115.556C118.326 84.2222 120.982 85.3226 122.941 87.2813C124.9 89.24 126 91.8966 126 94.6667V115.556C126 118.326 124.9 120.982 122.941 122.941C120.982 124.9 118.326 126 115.556 126H94.6667C91.8966 126 89.24 124.9 87.2813 122.941C85.3226 120.982 84.2222 118.326 84.2222 115.556V94.6667C84.2222 88.9222 88.9222 84.2222 94.6667 84.2222ZM94.6667 94.6667V115.556H115.556V94.6667H94.6667Z" fill="black"/>
</svg>
