<svg width="157" height="157" viewBox="0 0 157 157" fill="none" xmlns="http://www.w3.org/2000/svg">
<path d="M42.2207 31.6475H63.1096C65.8796 31.6475 68.5362 32.7479 70.4949 34.7066C72.4536 36.6653 73.554 39.3219 73.554 42.0919V62.9808C73.554 65.7508 72.4536 68.4074 70.4949 70.3661C68.5362 72.3248 65.8796 73.4252 63.1096 73.4252H42.2207C39.4507 73.4252 36.7941 72.3248 34.8354 70.3661C32.8766 68.4074 31.7762 65.7508 31.7762 62.9808V42.0919C31.7762 36.3475 36.4762 31.6475 42.2207 31.6475ZM42.2207 42.0919V62.9808H63.1096V42.0919H42.2207ZM94.4429 31.6475H115.332C118.102 31.6475 120.758 32.7479 122.717 34.7066C124.676 36.6653 125.776 39.3219 125.776 42.0919V62.9808C125.776 65.7508 124.676 68.4074 122.717 70.3661C120.758 72.3248 118.102 73.4252 115.332 73.4252H94.4429C91.6729 73.4252 89.0163 72.3248 87.0576 70.3661C85.0989 68.4074 83.9985 65.7508 83.9985 62.9808V42.0919C83.9985 36.3475 88.6985 31.6475 94.4429 31.6475ZM94.4429 42.0919V62.9808H115.332V42.0919H94.4429ZM42.2207 83.8697H63.1096C65.8796 83.8697 68.5362 84.9701 70.4949 86.9288C72.4536 88.8875 73.554 91.5441 73.554 94.3141V115.203C73.554 117.973 72.4536 120.63 70.4949 122.588C68.5362 124.547 65.8796 125.647 63.1096 125.647H42.2207C39.4507 125.647 36.7941 124.547 34.8354 122.588C32.8766 120.63 31.7762 117.973 31.7762 115.203V94.3141C31.7762 88.5697 36.4762 83.8697 42.2207 83.8697ZM42.2207 94.3141V115.203H63.1096V94.3141H42.2207ZM94.4429 83.8697H115.332C118.102 83.8697 120.758 84.9701 122.717 86.9288C124.676 88.8875 125.776 91.5441 125.776 94.3141V115.203C125.776 117.973 124.676 120.63 122.717 122.588C120.758 124.547 118.102 125.647 115.332 125.647H94.4429C91.6729 125.647 89.0163 124.547 87.0576 122.588C85.0989 120.63 83.9985 117.973 83.9985 115.203V94.3141C83.9985 88.5697 88.6985 83.8697 94.4429 83.8697ZM94.4429 94.3141V115.203H115.332V94.3141H94.4429Z" fill="white"/>
</svg>
