<svg width="729" height="900" viewBox="0 0 729 900" fill="none" xmlns="http://www.w3.org/2000/svg">
<g clip-path="url(#clip0)">
<path d="M359.117 279.62C359.117 282.964 356.741 286.472 351.854 289.285C347.035 292.06 340.21 293.856 332.536 293.856C324.861 293.856 318.036 292.06 313.217 289.285C308.33 286.472 305.954 282.964 305.954 279.62C305.954 276.276 308.33 272.767 313.217 269.954C318.036 267.18 324.861 265.384 332.536 265.384C340.21 265.384 347.035 267.18 351.854 269.954C356.741 272.767 359.117 276.276 359.117 279.62Z" stroke="white" stroke-width="5.02067"/>
<line x1="312.683" y1="287.222" x2="308.582" y2="370.874" stroke="white" stroke-width="5.02067"/>
<path d="M391.837 281.023L357.315 300.76L487.662 392.619L491.335 343.865C492.96 322.298 484.015 301.284 467.343 287.506C445.975 269.846 415.903 267.264 391.837 281.023Z" fill="black"/>
<path d="M591.665 543.916L426.546 522.863V539.911L424.463 583.66C424.142 590.396 416.856 594.45 410.963 591.17C407.925 589.48 404.189 589.67 401.338 591.66L399.208 593.148C392.797 597.625 383.925 595.604 380.085 588.794L356.178 546.403L367.776 513.609L260.231 541.064C226.508 549.673 197.165 570.461 177.859 599.42C151.846 638.44 137.965 684.286 137.965 731.182V995.239H816.64C822.807 937.972 814.102 880.082 791.364 827.161L707.025 630.869C686.676 583.507 642.8 550.435 591.665 543.916Z" fill="black"/>
<path d="M451.149 331.484H325.632V449.934C325.632 457.726 328.46 465.254 333.592 471.118L334.939 472.658C340.192 478.661 347.78 482.104 355.756 482.104V547.373L384.07 595.911C388.3 603.162 396.063 607.621 404.457 607.621C413.119 607.621 421.084 602.876 425.21 595.26L451.149 547.373V331.484Z" fill="#F6D989"/>
<path d="M358.267 376.67V387.54C358.267 395.275 356.696 402.929 353.649 410.038V410.038C352.148 413.541 354.25 417.538 357.988 418.286L363.288 419.346" stroke="black" stroke-width="5.02067" stroke-linecap="round" stroke-linejoin="round"/>
<path d="M378.898 430.664L380.561 429.832C385.119 427.553 389.156 424.355 392.419 420.44C393.853 418.72 396.652 419.622 396.811 421.856L397.449 430.789C397.88 436.814 393.108 441.938 387.068 441.938C383.906 441.938 380.916 440.501 378.941 438.032L377.637 436.403C376.135 434.525 376.747 431.739 378.898 430.664Z" stroke="black" stroke-width="5.02067"/>
<line x1="390.901" y1="381.69" x2="390.901" y2="390.108" stroke="black" stroke-width="5.02067" stroke-linecap="round" stroke-linejoin="round"/>
<line x1="340.674" y1="381.711" x2="340.615" y2="388.775" stroke="black" stroke-width="5.02067" stroke-linecap="round" stroke-linejoin="round"/>
<path d="M398.432 482.104L400.657 481.077C419.839 472.223 433.847 454.993 438.597 434.407L471.232 446.959C462.094 468.28 441.13 482.104 417.933 482.104H398.432Z" fill="black"/>
<path d="M250.322 504.825V535.705C250.322 536.774 250.573 537.829 251.054 538.784L253.297 543.24L306.163 529.305L355.756 516.897V482.104C338.052 477.678 325.632 461.771 325.632 443.522V356.587C350.287 356.587 374.493 349.996 395.744 337.495L405.963 331.484L405.452 338.633C404.143 356.959 407.788 375.299 416.005 391.732L426.35 381.386C429.211 378.525 433.503 377.644 437.26 379.147C441.1 380.683 443.618 384.403 443.618 388.539V404.986C443.618 415.526 438.351 425.367 429.582 431.214L428.556 431.897L430.022 449.487C430.692 457.527 434.461 464.991 440.532 470.304C447.279 476.207 451.149 484.736 451.149 493.702V525.938L603.679 546.487C607.086 515.076 591.345 484.68 563.726 469.336L553.151 463.462C532.029 451.727 518.928 429.463 518.928 405.3C518.928 393.14 515.596 381.213 509.294 370.814L492.465 343.046C478.127 319.389 450.822 306.853 423.536 311.401L384.234 286.579C378.766 283.125 372.38 281.408 365.917 281.652L360.019 281.875C338.229 282.699 320.121 298.934 316.931 320.505L315.58 329.642C314.035 340.093 307.001 348.91 297.155 352.739L295.8 353.266C280.694 359.141 273.702 376.563 280.556 391.251L285.683 402.236C295.814 423.946 289.449 449.783 270.392 464.302C257.745 473.938 250.322 488.926 250.322 504.825Z" fill="#FF9900"/>
<path d="M441.785 383.356C441.176 382.749 441.168 381.747 441.887 381.276C442.855 380.641 443.962 380.234 445.125 380.096C446.807 379.896 448.507 380.268 449.951 381.153C451.395 382.038 452.499 383.383 453.083 384.973C453.668 386.562 453.701 388.302 453.175 389.912C452.649 391.522 451.596 392.908 450.186 393.845C448.775 394.783 447.09 395.218 445.402 395.08C443.714 394.942 442.122 394.239 440.883 393.085C440.026 392.286 439.372 391.305 438.966 390.221C438.663 389.416 439.261 388.612 440.111 388.482V388.482C440.96 388.351 441.733 388.958 442.149 389.711C442.373 390.116 442.661 390.487 443.005 390.807C443.732 391.484 444.666 391.896 445.656 391.977C446.646 392.058 447.635 391.803 448.462 391.253C449.289 390.703 449.907 389.89 450.216 388.946C450.524 388.001 450.505 386.98 450.162 386.048C449.819 385.116 449.171 384.326 448.324 383.807C447.477 383.288 446.48 383.07 445.493 383.187C445.027 383.243 444.576 383.372 444.156 383.567C443.376 383.929 442.394 383.963 441.785 383.356V383.356Z" fill="white"/>
<rect x="405.581" y="689.062" width="111.337" height="121.158" transform="rotate(-10.5812 405.581 689.062)" fill="white"/>
<path d="M531.865 729.573L592.296 792.555V899.711L585.021 897.686C549.639 887.837 513.533 880.806 477.04 876.659L439.698 871.769C430.822 870.607 423.787 863.71 422.449 854.858L410.089 773.095C409.25 767.542 413.455 762.504 419.069 762.338L464.467 760.998C490.298 760.235 514.675 748.869 531.865 729.573Z" fill="#F6D989"/>
<line x1="454.815" y1="782.632" x2="463.621" y2="858.244" stroke="black" stroke-width="10.0413" stroke-linecap="round" stroke-linejoin="round"/>
<line x1="413.175" y1="797.308" x2="453.86" y2="794.513" stroke="black" stroke-width="10.0413" stroke-linecap="round" stroke-linejoin="round"/>
<line x1="416.289" y1="821.737" x2="455.024" y2="818.88" stroke="black" stroke-width="10.0413" stroke-linecap="round" stroke-linejoin="round"/>
<line x1="421.041" y1="848.486" x2="459.632" y2="845.463" stroke="black" stroke-width="10.0413" stroke-linecap="round" stroke-linejoin="round"/>
<path d="M471.174 739.665C488.299 736.466 503.295 729.516 513.671 720.606C523.933 711.793 530.442 700.291 528.199 688.284C525.956 676.277 515.733 667.901 502.982 663.387C490.09 658.824 473.595 657.756 456.471 660.955C439.346 664.154 424.349 671.105 413.974 680.014C403.712 688.827 397.203 700.329 399.446 712.336C401.689 724.343 411.911 732.719 424.662 737.233C437.555 741.796 454.049 742.864 471.174 739.665Z" fill="white" stroke="black" stroke-width="10.0413"/>
<path d="M466.613 711.704C483.587 708.533 498.593 702.391 509.127 694.801C519.308 687.466 526.853 677.539 524.844 666.783C522.835 656.026 512.214 649.493 500.072 646.328C487.508 643.052 471.297 642.742 454.323 645.913C437.349 649.084 422.343 655.226 411.808 662.816C401.628 670.151 394.082 680.078 396.092 690.834C398.101 701.591 408.721 708.124 420.863 711.289C433.428 714.564 449.639 714.875 466.613 711.704Z" fill="white" stroke="black" stroke-width="10.0413"/>
<path d="M454.011 284.29C453.727 287.622 451.061 290.916 445.953 293.303C440.915 295.658 433.962 296.868 426.316 296.216C418.669 295.563 412.021 293.194 407.455 290.02C402.825 286.802 400.756 283.104 401.04 279.772C401.324 276.441 403.989 273.147 409.098 270.759C414.135 268.404 421.088 267.195 428.735 267.847C436.382 268.499 443.029 270.868 447.596 274.042C452.226 277.26 454.295 280.958 454.011 284.29Z" stroke="white" stroke-width="5.02067"/>
<line x1="357.292" y1="277.109" x2="403.66" y2="276.67" stroke="white" stroke-width="5.02067"/>
<line x1="453.66" y1="281.277" x2="453.66" y2="359.516" stroke="white" stroke-width="5.02067"/>
</g>
<defs>
<clipPath id="clip0">
<rect width="729" height="900" fill="white"/>
</clipPath>
</defs>
</svg>
