<svg width="2636" height="1165" viewBox="0 0 2636 1165" fill="none" xmlns="http://www.w3.org/2000/svg">
<rect width="2634.44" height="1164.21" transform="translate(0.78418 0.402344)" fill="black"/>
<line x1="1318.51" y1="109.241" x2="1318.51" y2="1055.77" stroke="white"/>
<line x1="1318.51" y1="109.241" x2="1318.51" y2="1055.77" stroke="white"/>
<line x1="1791.27" y1="583.008" x2="844.739" y2="583.008" stroke="white"/>
<line x1="1791.27" y1="583.008" x2="844.739" y2="583.008" stroke="white"/>
<line x1="1196" y1="125.238" x2="1440.98" y2="1039.52" stroke="white"/>
<line x1="1196" y1="125.238" x2="1440.98" y2="1039.52" stroke="white"/>
<line x1="1775.28" y1="460.501" x2="860.995" y2="705.481" stroke="white"/>
<line x1="1775.28" y1="460.501" x2="860.995" y2="705.481" stroke="white"/>
<line x1="1081.81" y1="172.397" x2="1555.07" y2="992.119" stroke="white"/>
<line x1="1081.81" y1="172.397" x2="1555.07" y2="992.119" stroke="white"/>
<line x1="1728.12" y1="346.308" x2="908.395" y2="819.574" stroke="white"/>
<line x1="1728.12" y1="346.308" x2="908.395" y2="819.574" stroke="white"/>
<line x1="983.709" y1="247.504" x2="1653.01" y2="916.805" stroke="white"/>
<line x1="983.709" y1="247.504" x2="1653.01" y2="916.805" stroke="white"/>
<line x1="1653.01" y1="248.211" x2="983.709" y2="917.512" stroke="white"/>
<line x1="1653.01" y1="248.211" x2="983.709" y2="917.512" stroke="white"/>
<line x1="908.395" y1="345.441" x2="1728.12" y2="818.708" stroke="white"/>
<line x1="908.395" y1="345.441" x2="1728.12" y2="818.708" stroke="white"/>
<line x1="1555.07" y1="172.897" x2="1081.81" y2="992.619" stroke="white"/>
<line x1="1555.07" y1="172.897" x2="1081.81" y2="992.619" stroke="white"/>
<line x1="860.995" y1="459.535" x2="1775.28" y2="704.516" stroke="white"/>
<line x1="860.995" y1="459.535" x2="1775.28" y2="704.516" stroke="white"/>
<line x1="1440.98" y1="125.497" x2="1196" y2="1039.78" stroke="white"/>
<line x1="1440.98" y1="125.497" x2="1196" y2="1039.78" stroke="white"/>
<line x1="1383.58" y1="113.806" x2="1253.42" y2="1051.35" stroke="white"/>
<line x1="1383.58" y1="113.806" x2="1253.42" y2="1051.35" stroke="white"/>
<line x1="1786.71" y1="648.084" x2="849.166" y2="517.923" stroke="white"/>
<line x1="1786.71" y1="648.084" x2="849.166" y2="517.923" stroke="white"/>
<line x1="1260.04" y1="112.804" x2="1376.97" y2="1052.09" stroke="white"/>
<line x1="1260.04" y1="112.804" x2="1376.97" y2="1052.09" stroke="white"/>
<line x1="1787.71" y1="524.54" x2="848.426" y2="641.468" stroke="white"/>
<line x1="1787.71" y1="524.54" x2="848.426" y2="641.468" stroke="white"/>
<line x1="1140.44" y1="143.812" x2="1496.49" y2="1020.83" stroke="white"/>
<line x1="1140.44" y1="143.812" x2="1496.49" y2="1020.83" stroke="white"/>
<line x1="1756.7" y1="404.947" x2="879.686" y2="760.995" stroke="white"/>
<line x1="1756.7" y1="404.947" x2="879.686" y2="760.995" stroke="white"/>
<line x1="1032.95" y1="204.716" x2="1603.86" y2="959.696" stroke="white"/>
<line x1="1032.95" y1="204.716" x2="1603.86" y2="959.696" stroke="white"/>
<line x1="1695.8" y1="297.454" x2="940.818" y2="868.359" stroke="white"/>
<line x1="1695.8" y1="297.454" x2="940.818" y2="868.359" stroke="white"/>
<line x1="944.886" y1="291.367" x2="1691.74" y2="872.86" stroke="white"/>
<line x1="944.886" y1="291.367" x2="1691.74" y2="872.86" stroke="white"/>
<line x1="1609.15" y1="209.388" x2="1027.65" y2="956.243" stroke="white"/>
<line x1="1609.15" y1="209.388" x2="1027.65" y2="956.243" stroke="white"/>
<line x1="882.247" y1="397.858" x2="1754.15" y2="766.237" stroke="white"/>
<line x1="882.247" y1="397.858" x2="1754.15" y2="766.237" stroke="white"/>
<line x1="1502.66" y1="146.749" x2="1134.28" y2="1018.66" stroke="white"/>
<line x1="1502.66" y1="146.749" x2="1134.28" y2="1018.66" stroke="white"/>
<circle cx="1318.01" cy="581.47" r="44.4026" fill="black"/>
<path d="M908.145 543.455L909.076 561.347C909.657 572.504 918.573 581.419 929.73 582L947.622 582.932L929.73 583.864C918.573 584.445 909.657 593.36 909.076 604.517L908.145 622.41L907.213 604.517C906.632 593.36 897.717 584.445 886.56 583.864L868.667 582.932L886.56 582C897.717 581.419 906.632 572.504 907.213 561.347L908.145 543.455Z" fill="white"/>
<path d="M1717.04 543.455L1716.1 561.347C1715.52 572.504 1706.61 581.419 1695.45 582L1677.56 582.932L1695.45 583.864C1706.61 584.445 1715.52 593.36 1716.1 604.517L1717.04 622.41L1717.97 604.517C1718.55 593.36 1727.46 584.445 1738.62 583.864L1756.51 582.932L1738.62 582C1727.46 581.419 1718.55 572.504 1717.97 561.347L1717.04 543.455Z" fill="white"/>
<path d="M983.955 560.098L984.494 570.447C984.83 576.9 989.986 582.057 996.439 582.393L1006.79 582.932L996.439 583.471C989.986 583.807 984.83 588.964 984.494 595.417L983.955 605.766L983.416 595.417C983.08 588.964 977.923 583.807 971.47 583.471L961.121 582.932L971.47 582.393C977.923 582.057 983.08 576.9 983.416 570.447L983.955 560.098Z" fill="white"/>
<path d="M1641.23 560.098L1640.69 570.447C1640.35 576.9 1635.19 582.057 1628.74 582.393L1618.39 582.932L1628.74 583.471C1635.19 583.807 1640.35 588.964 1640.69 595.417L1641.23 605.766L1641.77 595.417C1642.1 588.964 1647.26 583.807 1653.71 583.471L1664.06 582.932L1653.71 582.393C1647.26 582.057 1642.1 576.9 1641.77 570.447L1641.23 560.098Z" fill="white"/>
<path d="M1042.72 567.749L1043.08 574.63C1043.31 578.921 1046.74 582.35 1051.03 582.574L1057.91 582.932L1051.03 583.29C1046.74 583.514 1043.31 586.943 1043.08 591.234L1042.72 598.115L1042.37 591.234C1042.14 586.943 1038.71 583.514 1034.42 583.29L1027.54 582.932L1034.42 582.574C1038.71 582.35 1042.14 578.921 1042.37 574.63L1042.72 567.749Z" fill="white"/>
<path d="M1582.46 567.749L1582.1 574.63C1581.87 578.921 1578.45 582.35 1574.15 582.574L1567.27 582.932L1574.15 583.29C1578.45 583.514 1581.87 586.943 1582.1 591.234L1582.46 598.115L1582.81 591.234C1583.04 586.943 1586.47 583.514 1590.76 583.29L1597.64 582.932L1590.76 582.574C1586.47 582.35 1583.04 578.921 1582.81 574.63L1582.46 567.749Z" fill="white"/>
<path d="M1357.48 177.024L1339.59 177.956C1328.43 178.537 1319.52 187.452 1318.94 198.61L1318.01 216.502L1317.07 198.61C1316.49 187.452 1307.58 178.537 1296.42 177.956L1278.53 177.024L1296.42 176.093C1307.58 175.512 1316.49 166.596 1317.07 155.439L1318.01 137.547L1318.94 155.439C1319.52 166.596 1328.43 175.512 1339.59 176.093L1357.48 177.024Z" fill="white"/>
<path d="M1357.48 985.916L1339.59 984.984C1328.43 984.403 1319.52 975.488 1318.94 964.331L1318.01 946.439L1317.07 964.331C1316.49 975.488 1307.58 984.403 1296.42 984.984L1278.53 985.916L1296.42 986.848C1307.58 987.429 1316.49 996.344 1317.07 1007.5L1318.01 1025.39L1318.94 1007.5C1319.52 996.344 1328.43 987.429 1339.59 986.848L1357.48 985.916Z" fill="white"/>
<path d="M1340.84 252.834L1330.49 253.373C1324.04 253.709 1318.88 258.865 1318.54 265.319L1318.01 275.668L1317.47 265.319C1317.13 258.865 1311.97 253.709 1305.52 253.373L1295.17 252.834L1305.52 252.295C1311.97 251.959 1317.13 246.802 1317.47 240.349L1318.01 230L1318.54 240.349C1318.88 246.802 1324.04 251.959 1330.49 252.295L1340.84 252.834Z" fill="white"/>
<path d="M1340.84 910.106L1330.49 909.567C1324.04 909.231 1318.88 904.074 1318.54 897.621L1318.01 887.272L1317.47 897.621C1317.13 904.074 1311.97 909.231 1305.52 909.567L1295.17 910.106L1305.52 910.645C1311.97 910.981 1317.13 916.137 1317.47 922.591L1318.01 932.939L1318.54 922.591C1318.88 916.137 1324.04 910.981 1330.49 910.645L1340.84 910.106Z" fill="white"/>
<path d="M1333.19 311.604L1326.31 311.962C1322.02 312.186 1318.59 315.615 1318.36 319.906L1318.01 326.787L1317.65 319.906C1317.42 315.615 1313.99 312.186 1309.7 311.962L1302.82 311.604L1309.7 311.246C1313.99 311.022 1317.42 307.593 1317.65 303.302L1318.01 296.421L1318.36 303.302C1318.59 307.593 1322.02 311.022 1326.31 311.246L1333.19 311.604Z" fill="white"/>
<path d="M1333.19 851.335L1326.31 850.977C1322.02 850.754 1318.59 847.325 1318.36 843.034L1318.01 836.152L1317.65 843.034C1317.42 847.325 1313.99 850.754 1309.7 850.977L1302.82 851.335L1309.7 851.694C1313.99 851.917 1317.42 855.346 1317.65 859.637L1318.01 866.519L1318.36 859.637C1318.59 855.346 1322.02 851.917 1326.31 851.694L1333.19 851.335Z" fill="white"/>
</svg>
