<svg width="900" height="901" viewBox="0 0 900 901" fill="none" xmlns="http://www.w3.org/2000/svg">
<path d="M545.402 371.986C608.964 449.135 655.777 527.794 680.09 592.589C692.247 624.99 698.768 653.896 698.959 677.401C699.151 700.91 693.013 718.932 679.952 729.693C666.89 740.454 648.027 743.031 624.988 738.344C601.955 733.659 574.83 721.728 545.355 703.596C486.408 667.335 418.159 606.337 354.597 529.188C291.035 452.039 244.222 373.38 219.91 308.585C207.753 276.184 201.232 247.278 201.04 223.773C200.849 200.264 206.986 182.242 220.048 171.481C233.109 160.72 251.973 158.144 275.011 162.83C298.044 167.515 325.17 179.446 354.645 197.578C413.592 233.839 481.84 294.837 545.402 371.986Z" stroke="black"/>
<path d="M555.481 92.1758L557.259 126.327C558.368 147.623 575.385 164.64 596.681 165.749L630.833 167.528L596.681 169.306C575.385 170.415 558.368 187.432 557.259 208.728L555.481 242.88L553.702 208.728C552.593 187.432 535.576 170.415 514.281 169.306L480.129 167.528L514.281 165.749C535.576 164.64 552.593 147.623 553.702 126.327L555.481 92.1758Z" fill="black"/>
<path d="M291.207 658.294L292.986 692.446C294.095 713.741 311.112 730.758 332.408 731.867L366.559 733.646L332.408 735.424C311.112 736.533 294.095 753.55 292.986 774.846L291.207 808.998L289.429 774.846C288.32 753.55 271.303 736.533 250.007 735.424L215.855 733.646L250.007 731.867C271.303 730.758 288.32 713.741 289.429 692.446L291.207 658.294Z" fill="black"/>
</svg>
