<svg width="230" height="93" viewBox="0 0 230 93" fill="none" xmlns="http://www.w3.org/2000/svg">
<path d="M99.8716 92.3289C127.392 92.3289 152.283 87.1448 170.275 78.7849C188.308 70.4058 199.235 58.9304 199.235 46.4278C199.235 33.9253 188.308 22.4499 170.275 14.0708C152.283 5.71085 127.392 0.526739 99.8717 0.526738C72.3511 0.526737 47.4603 5.71085 29.4683 14.0707C11.435 22.4498 0.50836 33.9253 0.50836 46.4278C0.508359 58.9303 11.435 70.4058 29.4683 78.7849C47.4603 87.1448 72.3511 92.3289 99.8716 92.3289Z" stroke="white"/>
<path d="M99.8717 92.3289C117.881 92.3289 134.164 87.1607 145.932 78.8303C157.701 70.499 164.919 59.0358 164.919 46.4278C164.919 33.8199 157.701 22.3567 145.932 14.0254C134.164 5.69497 117.881 0.526737 99.8717 0.526736C81.8624 0.526735 65.5792 5.69496 53.8114 14.0254C42.0423 22.3567 34.824 33.8199 34.824 46.4278C34.824 59.0357 42.0423 70.499 53.8114 78.8303C65.5792 87.1607 81.8624 92.3289 99.8717 92.3289Z" stroke="white"/>
<path d="M99.8717 92.3289C108.936 92.3289 117.186 87.2488 123.19 78.9454C129.194 70.6427 132.922 59.1476 132.922 46.4278C132.922 33.7081 129.194 22.213 123.19 13.9103C117.186 5.60692 108.936 0.526735 99.8717 0.526735C90.8076 0.526734 82.5569 5.60692 76.5531 13.9103C70.5498 22.213 66.8212 33.7081 66.8212 46.4278C66.8212 59.1476 70.5498 70.6427 76.5531 78.9454C82.5569 87.2488 90.8076 92.3289 99.8717 92.3289Z" stroke="white"/>
<line x1="100.372" y1="0.0267334" x2="100.372" y2="92.829" stroke="white"/>
<line x1="199.735" y1="46.9279" x2="0.00836182" y2="46.9279" stroke="white"/>
<circle cx="227.572" cy="34.2272" r="2.28176" fill="white"/>
<circle cx="227.572" cy="58.6286" r="2.28176" fill="white"/>
</svg>
