<svg width="900" height="901" viewBox="0 0 900 901" fill="none" xmlns="http://www.w3.org/2000/svg">
<path d="M482.647 38.4663L468.621 54.0334C459.875 63.7405 459.875 78.4861 468.621 88.1932L482.647 103.76L467.08 89.7343C457.373 80.9881 442.627 80.9881 432.92 89.7343L417.353 103.76L431.379 88.1932C440.125 78.4861 440.125 63.7405 431.379 54.0334L417.353 38.4663L432.92 52.4923C442.627 61.2385 457.373 61.2385 467.08 52.4923L482.647 38.4663Z" fill="black"/>
<path d="M174.486 663.254L175.576 684.179C176.255 697.228 186.682 707.655 199.731 708.334L220.656 709.424L199.731 710.513C186.682 711.193 176.255 721.62 175.576 734.668L174.486 755.594L173.397 734.668C172.717 721.62 162.29 711.193 149.242 710.513L128.316 709.424L149.242 708.334C162.29 707.655 172.717 697.228 173.397 684.179L174.486 663.254Z" fill="black"/>
<path d="M727.873 663.254L728.963 684.179C729.642 697.228 740.069 707.655 753.117 708.334L774.043 709.424L753.117 710.513C740.069 711.193 729.642 721.62 728.963 734.668L727.873 755.594L726.783 734.668C726.104 721.62 715.677 711.193 702.629 710.513L681.703 709.424L702.629 708.334C715.677 707.655 726.104 697.228 726.783 684.179L727.873 663.254Z" fill="black"/>
<circle cx="450" cy="450.587" r="378.974" stroke="black"/>
</svg>
