<svg width="842" height="907" viewBox="0 0 842 907" fill="none" xmlns="http://www.w3.org/2000/svg">
<circle cx="420.705" cy="453.4" r="419.814" stroke="black"/>
<rect x="382.706" y="0.586914" width="76" height="65" rx="28" fill="white"/>
<ellipse rx="9.06969" ry="19.5196" transform="matrix(0.965926 -0.258819 -0.258819 -0.965926 403.552 35.4095)" fill="black"/>
<ellipse cx="437.859" cy="35.4095" rx="9.06969" ry="19.5196" transform="rotate(-165 437.859 35.4095)" fill="black"/>
<ellipse rx="9.06969" ry="19.5196" transform="matrix(1 0 0 -1 420.691 29.083)" fill="black"/>
<rect width="76" height="65" rx="28" transform="matrix(1 0 0 -1 382.706 906.214)" fill="white"/>
<ellipse cx="403.552" cy="871.391" rx="9.06969" ry="19.5196" transform="rotate(15 403.552 871.391)" fill="black"/>
<ellipse rx="9.06969" ry="19.5196" transform="matrix(-0.965926 0.258819 0.258819 0.965926 437.859 871.391)" fill="black"/>
<ellipse cx="420.691" cy="877.718" rx="9.06969" ry="19.5196" fill="black"/>
</svg>
