<svg width="729" height="900" viewBox="0 0 729 900" fill="none" xmlns="http://www.w3.org/2000/svg">
<g clip-path="url(#clip0)">
<path d="M393.274 277.998L409.839 260.605L424.216 256.292V325.3L410.45 323.989C400.351 323.027 391.619 316.543 387.778 307.153C383.706 297.201 385.858 285.785 393.274 277.998Z" fill="#283B66"/>
<path d="M415.59 286.483L411.277 343.989L503.287 364.116V306.61L513.738 289.69C525.87 270.047 526.072 245.288 514.264 225.45L513.142 223.565C503.377 207.159 486.14 196.635 467.086 195.444C443.748 193.986 421.75 206.9 411.48 227.907C402.479 246.319 403.736 268.247 414.906 285.43L415.59 286.483Z" fill="#EC6EB5"/>
<path d="M416.119 220.735L414.152 223.226V217.15C414.152 206.586 419.472 196.732 428.305 190.936C446.954 178.697 471.581 180.936 487.717 196.339L491.786 200.223C518.76 196.578 541.947 219.318 538.827 246.358L536.353 267.793L553.401 279.158C571.57 291.27 574.514 316.799 559.579 332.729C550.601 342.305 537.055 346.116 524.402 342.625L503.287 336.801V308.047L504.725 272.106L511.889 267.33C515.553 264.887 517.96 260.96 518.475 256.587L518.661 255.003C519.717 246.029 513.615 237.781 504.725 236.164L497.537 257.729C474.136 246.865 461.483 221.035 467.346 195.91C447.371 195.91 428.496 205.057 416.119 220.735Z" fill="#283B66"/>
<path d="M502.924 273.907L504.725 272.106V299.422C494.651 304.001 483.115 304.126 472.944 299.767L458.719 293.671C475.384 292.745 491.122 285.708 502.924 273.907Z" fill="black"/>
<path fill-rule="evenodd" clip-rule="evenodd" d="M448.656 241.915C449.269 242.937 448.94 244.267 447.885 244.82C439.238 249.346 429.12 250.296 419.775 247.496C418.634 247.154 418.058 245.91 418.465 244.791V244.791C418.872 243.671 420.108 243.101 421.251 243.435C429.377 245.803 438.14 244.979 445.662 241.114C446.721 240.57 448.043 240.894 448.656 241.915V241.915Z" fill="black"/>
<path fill-rule="evenodd" clip-rule="evenodd" d="M427.245 225.366L432.909 221.32C433.814 220.674 435.071 220.884 435.717 221.788V221.788C436.363 222.693 436.153 223.95 435.249 224.596L429.585 228.641C429.151 228.951 429.1 229.576 429.476 229.953L429.966 230.443C430.752 231.229 430.752 232.503 429.966 233.289V233.289C429.18 234.075 427.906 234.075 427.12 233.289L426.63 232.8C424.494 230.664 424.787 227.121 427.245 225.366Z" fill="black"/>
<path fill-rule="evenodd" clip-rule="evenodd" d="M465.618 229.818C460.591 230.537 455.524 229.129 451.607 225.991C450.739 225.296 450.745 224.011 451.531 223.225V223.225C452.317 222.439 453.585 222.453 454.473 223.121C457.476 225.376 461.277 226.372 465.048 225.833L467.061 225.546C468.161 225.389 469.181 226.153 469.338 227.254C469.495 228.354 468.731 229.374 467.63 229.531L465.618 229.818Z" fill="black"/>
<path fill-rule="evenodd" clip-rule="evenodd" d="M424.224 226.066C422.279 228.244 419.349 229.151 416.59 228.565C415.503 228.333 415.095 227.097 415.59 226.101V226.101C416.084 225.105 417.323 224.76 418.433 224.709C419.477 224.662 420.489 224.204 421.221 223.385L421.277 223.323C422.017 222.493 423.29 222.422 424.119 223.162C424.948 223.903 425.02 225.175 424.279 226.004L424.224 226.066Z" fill="black"/>
<mask id="mask0" mask-type="alpha" maskUnits="userSpaceOnUse" x="300" y="559" width="396" height="398">
<path d="M337.956 937.743L304.009 745.379C292.588 680.659 306.827 614.035 343.707 559.638L566.544 599.893L616.013 786.887C630.759 842.625 658.101 894.235 695.933 937.743L519.101 956.432L448.656 719.218L460.157 946.368L337.956 937.743Z" fill="#FF6666"/>
</mask>
<g mask="url(#mask0)">
<path d="M337.956 937.743L304.009 745.379C292.588 680.659 306.827 614.035 343.707 559.638L566.544 599.893L616.013 786.887C630.759 842.625 658.101 894.235 695.933 937.743L519.101 956.432L448.656 719.218L460.157 946.368L337.956 937.743Z" fill="#FF6666"/>
<circle cx="302.014" cy="740.783" r="21.5649" stroke="#FFAEAE" stroke-width="11.5013" stroke-linecap="round" stroke-linejoin="round"/>
<circle cx="353.77" cy="663.149" r="21.5649" stroke="#FFAEAE" stroke-width="11.5013" stroke-linecap="round" stroke-linejoin="round"/>
<circle cx="394.025" cy="737.908" r="21.5649" stroke="#FFAEAE" stroke-width="11.5013" stroke-linecap="round" stroke-linejoin="round"/>
<circle cx="442.905" cy="657.399" r="21.5649" stroke="#FFAEAE" stroke-width="11.5013" stroke-linecap="round" stroke-linejoin="round"/>
<circle cx="402.651" cy="582.641" r="21.5649" stroke="#FFAEAE" stroke-width="11.5013" stroke-linecap="round" stroke-linejoin="round"/>
<circle cx="497.536" cy="594.142" r="21.5649" stroke="#FFAEAE" stroke-width="11.5013" stroke-linecap="round" stroke-linejoin="round"/>
<circle cx="595.297" cy="689.027" r="21.5649" stroke="#FFAEAE" stroke-width="11.5013" stroke-linecap="round" stroke-linejoin="round"/>
<circle cx="523.414" cy="668.9" r="21.5649" stroke="#FFAEAE" stroke-width="11.5013" stroke-linecap="round" stroke-linejoin="round"/>
<circle cx="486.035" cy="766.661" r="21.5649" stroke="#FFAEAE" stroke-width="11.5013" stroke-linecap="round" stroke-linejoin="round"/>
<circle cx="575.17" cy="772.411" r="21.5649" stroke="#FFAEAE" stroke-width="11.5013" stroke-linecap="round" stroke-linejoin="round"/>
<circle cx="555.042" cy="844.294" r="21.5649" stroke="#FFAEAE" stroke-width="11.5013" stroke-linecap="round" stroke-linejoin="round"/>
<circle cx="396.9" cy="827.043" r="21.5649" stroke="#FFAEAE" stroke-width="11.5013" stroke-linecap="round" stroke-linejoin="round"/>
<circle cx="336.518" cy="881.674" r="21.5649" stroke="#FFAEAE" stroke-width="11.5013" stroke-linecap="round" stroke-linejoin="round"/>
<circle cx="422.778" cy="907.552" r="21.5649" stroke="#FFAEAE" stroke-width="11.5013" stroke-linecap="round" stroke-linejoin="round"/>
<circle cx="517.663" cy="919.053" r="21.5649" stroke="#FFAEAE" stroke-width="11.5013" stroke-linecap="round" stroke-linejoin="round"/>
<circle cx="649.928" cy="852.92" r="21.5649" stroke="#FFAEAE" stroke-width="11.5013" stroke-linecap="round" stroke-linejoin="round"/>
<circle cx="615.424" cy="921.928" r="21.5649" stroke="#FFAEAE" stroke-width="11.5013" stroke-linecap="round" stroke-linejoin="round"/>
</g>
<path d="M534.916 467.628L549.267 468.159C562.692 468.656 573.084 480.094 572.295 493.505V493.505" stroke="black" stroke-width="2.87532"/>
<path d="M303.963 373.486L294.827 437.437L371.023 565.389L565.107 605.643L592.422 473.379L671.493 450.376C664.582 403.723 629.34 366.315 583.182 356.637L518.517 343.078C494.025 337.943 469.168 334.73 444.175 333.47L357.804 329.115C331.087 327.768 307.746 347.004 303.963 373.486Z" fill="#F7F7F7"/>
<path d="M312.078 197.348L312.363 196.209C315.401 184.056 330.536 179.864 339.394 188.722V188.722" stroke="white" stroke-width="5.75064" stroke-linecap="round" stroke-linejoin="round"/>
<circle cx="289.075" cy="211.724" r="27.3155" stroke="white" stroke-width="5.75064" stroke-linecap="round" stroke-linejoin="round"/>
<circle cx="366.71" cy="191.597" r="27.3155" stroke="white" stroke-width="5.75064" stroke-linecap="round" stroke-linejoin="round"/>
<line x1="223.955" y1="292.503" x2="269.218" y2="236.59" stroke="white" stroke-width="5.75064" stroke-linecap="round" stroke-linejoin="round"/>
<rect x="486.035" y="411.559" width="60.3817" height="103.511" rx="8.62596" fill="#FFD0E1"/>
<path d="M712.783 567.887L672.931 450.376L592.422 474.816L618.3 535.198L592.07 523.091C585.521 520.069 581.878 512.97 583.24 505.888L584.202 500.884C586.713 487.83 584.165 474.31 577.076 463.065L548.03 416.993C547.053 415.443 545.241 414.63 543.434 414.931C540.548 415.412 538.86 418.454 539.979 421.158L555.043 457.564L517.771 442.655C514.638 441.402 511.107 443.133 510.18 446.378C509.5 448.76 510.436 451.308 512.497 452.682L534.916 467.628H504.237C500.537 467.628 497.537 470.627 497.537 474.328C497.537 477.843 500.253 480.761 503.76 481.011L537.791 483.442L534.424 486.304C518.918 499.484 512.379 520.411 517.623 540.074C519.545 547.284 522.976 554.003 527.688 559.789L589.719 635.953C614.353 666.201 658.695 671.098 689.337 646.956C713.11 628.226 722.503 596.549 712.783 567.887Z" fill="#EC6EB5"/>
<path d="M293.389 438.874H376.773L373.096 554.689C371.909 592.097 343.23 622.855 305.997 626.655C264.35 630.904 227.337 600.114 223.936 558.389L211.213 402.323C209.584 382.344 197.08 364.889 178.688 356.919C169.897 353.11 161.681 348.092 154.278 342.01L126.767 319.412C125.764 318.588 125.183 317.359 125.183 316.061C125.183 312.948 128.366 310.849 131.227 312.076L165.437 326.737L134.431 297.079C133.173 295.876 132.722 294.055 133.272 292.404C134.243 289.491 137.783 288.385 140.24 290.228L175.501 316.673L154.858 271.26C154.289 270.009 154.449 268.547 155.273 267.447C156.768 265.455 159.751 265.439 161.266 267.416L191.315 306.61L194.186 294.17C197.555 279.571 210.728 269.231 225.71 269.231C228.136 269.231 230.132 271.197 230.132 273.622V275.528C230.132 276.072 229.817 276.566 229.325 276.796L221.012 280.675C213.842 284.021 210.166 292.08 212.34 299.688L212.767 301.182C215.142 309.496 224.15 313.968 232.208 310.834C238.57 308.36 242.388 301.829 241.422 295.072L239.142 279.107C238.9 277.415 239.469 275.707 240.678 274.499C243.282 271.895 247.667 272.582 249.349 275.858L264.314 304.999C270.245 316.549 274.386 328.932 276.598 341.726L293.389 438.874Z" fill="#EC6EB5"/>
<line x1="296.783" y1="439.676" x2="318.63" y2="546.18" stroke="black" stroke-width="5.75064" stroke-linecap="round" stroke-linejoin="round"/>
<path d="M457.161 353.441C457.505 352.295 457.102 351.055 456.151 350.329C455.199 349.603 453.898 349.543 452.883 350.177L449.259 352.441C443.733 355.895 438.959 360.427 435.222 365.765L426.147 378.73C422.081 384.538 423.59 392.554 429.489 396.486C438.453 402.462 450.303 395.197 449.044 384.498L448.936 383.576C448.784 382.288 448.898 380.983 449.271 379.741L457.161 353.441Z" stroke="#FF6666" stroke-width="5.75064" stroke-linecap="round" stroke-linejoin="round"/>
<path d="M453.059 353.326C452.764 352.173 453.211 350.957 454.183 350.269C455.154 349.581 456.449 349.562 457.44 350.223L461.752 353.098C461.855 353.167 461.953 353.242 462.046 353.323L483.888 372.354C489.843 377.542 490.239 386.659 484.757 392.344C477.252 400.128 464.118 396.653 461.444 386.177L453.059 353.326Z" stroke="#FF6666" stroke-width="5.75064" stroke-linecap="round" stroke-linejoin="round"/>
<path d="M453.334 354.269L451.617 372.955C449.886 391.787 453.45 410.729 461.908 427.644V427.644" stroke="#FF6666" stroke-width="5.75064" stroke-linecap="round" stroke-linejoin="round"/>
<path d="M454.406 352.615L457.162 373.973C459.096 388.962 466.268 402.785 477.409 412.997V412.997" stroke="#FF6666" stroke-width="5.75064" stroke-linecap="round" stroke-linejoin="round"/>
<circle cx="498.974" cy="423.06" r="5.75064" fill="white"/>
<circle cx="514.788" cy="266.356" r="4.31298" fill="white"/>
<circle cx="517.663" cy="249.103" r="4.31298" fill="white"/>
<path d="M618.177 535.646L638.251 543.617C657.38 551.212 671.572 567.701 676.234 587.749V587.749" stroke="black" stroke-width="5.75064" stroke-linecap="round" stroke-linejoin="round"/>
<path d="M535.558 467.913H553.839C561.858 467.913 568.801 473.483 570.541 481.311V481.311" stroke="black" stroke-width="5.75064" stroke-linecap="round" stroke-linejoin="round"/>
<path d="M191.682 336.913L208.833 336.208C229.117 335.374 246.017 351.594 246.017 371.896V371.896" stroke="black" stroke-width="5.75064" stroke-linecap="round" stroke-linejoin="round"/>
</g>
<defs>
<clipPath id="clip0">
<rect width="729" height="900" fill="white"/>
</clipPath>
</defs>
</svg>
